<?xml version="1.0" encoding="UTF-8" standalone="no"?>
<!--
License: Attribution-ShareAlike 3.0 Unported (CC BY-SA 3.0)
https://creativecommons.org/licenses/by-sa/3.0/

Author: shaack (https://shaack.com)
-->

<svg width="40px" height="40px" viewBox="0 0 40 40" version="1.1" xmlns="http://www.w3.org/2000/svg">
    <title>cm-chessboard markers</title>
    <desc>Markers for cm-chessboard (https://shaack.com/projekte/cm-chessboard/)</desc>
    <g id="markerFrame" transform="translate(2.000000, 2.000000)" fill="#000000" fill-opacity="0">
        <path d="M2.66453526e-15,10.5882353 L2.66453526e-15,2.11764706 C2.66453526e-15,1.41176471 0.176470588,0.882352941 0.529411765,0.529411765 C0.882352941,0.176470588 1.41176471,-2.84217094e-14 2.11764706,-2.84217094e-14 L10.5882353,-2.84217094e-14" id="Path"/>
        <path d="M25.4117647,36 L25.4117647,27.5294118 C25.4117647,26.8235294 25.5882353,26.2941176 25.9411765,25.9411765 C26.2941176,25.5882353 26.8235294,25.4117647 27.5294118,25.4117647 L36,25.4117647" id="Path" transform="translate(30.705882, 30.705882) rotate(-180.000000) translate(-30.705882, -30.705882) "/>
        <path d="M0,36 L0,27.5294118 C0,26.8235294 0.176470588,26.2941176 0.529411765,25.9411765 C0.882352941,25.5882353 1.41176471,25.4117647 2.11764706,25.4117647 L10.5882353,25.4117647" id="Path" transform="translate(5.294118, 30.705882) rotate(-90.000000) translate(-5.294118, -30.705882) "/>
        <path d="M25.4117647,10.5882353 L25.4117647,2.11764706 C25.4117647,1.41176471 25.5882353,0.882352941 25.9411765,0.529411765 C26.2941176,0.176470588 26.8235294,0 27.5294118,0 L36,0" id="Path" transform="translate(30.705882, 5.294118) rotate(-270.000000) translate(-30.705882, -5.294118) "/>
    </g>
    <g id="markerCircle" fill="#000000" fill-opacity="0">
        <circle cx="20" cy="20" r="18"/>
    </g>
    <g id="markerDot">
        <circle cx="20" cy="20" r="7"/>
    </g>
    <g id="markerBevel">
        <path d="M-1.77635684e-15,8.8817842e-16 L9,8.8817842e-16 C7.43502116,0.842866191 5.49543951,2.27321471 3.86541703,3.91660579 C2.21006344,5.58553575 0.86967521,7.47275765 -1.77635684e-15,9 L-1.77635684e-15,8.8817842e-16 Z"/>
        <path d="M30.9995741,0.000425886354 L40.0194705,0.000425886354 C38.4510319,0.843292078 36.5071624,2.2736406 34.8735365,3.91703168 C33.2145234,5.58596164 31.8711719,7.47318354 30.9995741,9.00042589 L30.9995741,0.000425886354 Z" transform="translate(35.509522, 4.500426) rotate(-270.000000) translate(-35.509522, -4.500426) "/>
        <path d="M30.9995741,31.0004259 L40.0194705,31.0004259 C38.4510319,31.8432921 36.5071624,33.2736406 34.8735365,34.9170317 C33.2145234,36.5859616 31.8711719,38.4731835 30.9995741,40.0004259 L30.9995741,31.0004259 Z" transform="translate(35.509522, 35.500426) rotate(-180.000000) translate(-35.509522, -35.500426) "/>
        <path d="M-0.000425886354,31.0004259 L9.01947047,31.0004259 C7.45103192,31.8432921 5.50716243,33.2736406 3.87353645,34.9170317 C2.21452335,36.5859616 0.87117192,38.4731835 -0.000425886354,40.0004259 L-0.000425886354,31.0004259 Z" transform="translate(4.509522, 35.500426) rotate(-90.000000) translate(-4.509522, -35.500426) "/>
    </g>
    <g id="markerSquare">
        <rect x="0" y="0" width="40" height="40"/>
    </g>
</svg>
