<?xml version="1.0" encoding="UTF-8"?>
<svg width="240px" height="120px" viewBox="0 0 240 120" version="1.1" xmlns="http://www.w3.org/2000/svg" xmlns:xlink="http://www.w3.org/1999/xlink">
    <!-- Generator: Sketch 47.1 (45422) - http://www.bohemiancoding.com/sketch -->
    <title>Slice</title>
    <desc>Created with Sketch.</desc>
    <defs></defs>
    <g id="Sprite" stroke="none" stroke-width="1" fill="none" fill-rule="evenodd" stroke-linecap="round">
        <g id="wk" stroke-linejoin="round" transform="translate(3.000000, 3.000000)" stroke="#000000" stroke-width="1.5">
            <path d="M17,5.63 L17,0" id="Shape"></path>
            <path d="M14.5714286,2 L19.4285714,2" id="Shape"></path>
            <path d="M19.9142857,8.5 C19.9142857,8.5 18.9428571,6 17,6 C15.0571429,6 14.0857143,8.5 14.0857143,8.5 C12.6285714,11.5 17,19 17,19 C17,19 21.3714286,11.5 19.9142857,8.5 Z" id="Shape" fill="#FFFFFF" fill-rule="nonzero"></path>
            <path d="M6.31428571,31 C11.6571429,34.5 21.3714286,34.5 26.7142857,31 L26.7142857,24 C26.7142857,24 35.4571429,19.5 32.5428571,13.5 C28.6571429,7 19.4285714,10 17,17.5 L17,21 L17,17.5 C13.6,10 4.37142857,7 1.45714286,13.5 C-1.45714286,19.5 6.31428571,23.5 6.31428571,23.5 L6.31428571,31 Z" id="Shape" fill="#FFFFFF" fill-rule="nonzero"></path>
            <path d="M6.31428571,24 C11.6571429,21 21.3714286,21 26.7142857,24" id="Shape"></path>
            <path d="M6.31428571,27.5 C11.6571429,24.5 21.3714286,24.5 26.7142857,27.5" id="Shape"></path>
            <path d="M6.31428571,31 C11.6571429,28 21.3714286,28 26.7142857,31" id="Shape"></path>
        </g>
        <g id="wq" stroke-linejoin="round" transform="translate(42.000000, 3.000000)" stroke="#000000" stroke-width="1.5">
            <path d="M3.89189189,7 C3.89189189,8.1045695 3.02066222,9 1.94594595,9 C0.871229676,9 0,8.1045695 0,7 C0,5.8954305 0.871229676,5 1.94594595,5 C3.02066222,5 3.89189189,5.8954305 3.89189189,7 Z" id="Shape" fill="#FFFFFF"></path>
            <path d="M19.9459459,2.5 C19.9459459,3.6045695 19.0747163,4.5 18,4.5 C16.9252837,4.5 16.0540541,3.6045695 16.0540541,2.5 C16.0540541,1.3954305 16.9252837,0.5 18,0.5 C19.0747163,0.5 19.9459459,1.3954305 19.9459459,2.5 Z" id="Shape" fill="#FFFFFF"></path>
            <path d="M36,7 C36,8.1045695 35.1287703,9 34.0540541,9 C32.9793378,9 32.1081081,8.1045695 32.1081081,7 C32.1081081,5.8954305 32.9793378,5 34.0540541,5 C35.1287703,5 36,5.8954305 36,7 Z" id="Shape" fill="#FFFFFF"></path>
            <path d="M11.6756757,3.5 C11.6756757,4.6045695 10.804446,5.5 9.72972973,5.5 C8.65501346,5.5 7.78378378,4.6045695 7.78378378,3.5 C7.78378378,2.3954305 8.65501346,1.5 9.72972973,1.5 C10.804446,1.5 11.6756757,2.3954305 11.6756757,3.5 Z" id="Shape" fill="#FFFFFF"></path>
            <path d="M28.2162162,4 C28.2162162,5.1045695 27.3449865,6 26.2702703,6 C25.195554,6 24.3243243,5.1045695 24.3243243,4 C24.3243243,2.8954305 25.195554,2 26.2702703,2 C27.3449865,2 28.2162162,2.8954305 28.2162162,4 Z" id="Shape" fill="#FFFFFF"></path>
            <path d="M4.86486486,21 C13.1351351,19.5 25.2972973,19.5 31.1351351,21 L33.0810811,9 L26.2702703,20 L26.2702703,6 L20.9189189,19.5 L18,4.5 L15.0810811,19.5 L9.72972973,5.5 L9.72972973,20 L2.91891892,9 L4.86486486,21 Z" id="Shape" fill="#FFFFFF"></path>
            <path d="M4.86486486,21 C4.86486486,23 6.32432432,23 7.2972973,25 C8.27027027,26.5 8.27027027,26 7.78378378,28.5 C6.32432432,29.5 6.32432432,31 6.32432432,31 C4.86486486,32.5 6.81081081,33.5 6.81081081,33.5 C13.1351351,34.5 22.8648649,34.5 29.1891892,33.5 C29.1891892,33.5 30.6486486,32.5 29.1891892,31 C29.1891892,31 29.6756757,29.5 28.2162162,28.5 C27.7297297,26 27.7297297,26.5 28.7027027,25 C29.6756757,23 31.1351351,23 31.1351351,21 C22.8648649,19.5 13.1351351,19.5 4.86486486,21 Z" id="Shape" fill="#FFFFFF"></path>
            <path d="M7.2972973,25 C10.7027027,24 25.2972973,24 28.7027027,25" id="Shape"></path>
            <path d="M7.78378378,28.5 C13.6216216,27.5 22.3783784,27.5 28.2162162,28.5" id="Shape"></path>
        </g>
        <g id="wb" stroke-linejoin="round" transform="translate(84.000000, 3.000000)" stroke-width="1.5" stroke="#000000">
            <g id="Group" fill="#FFFFFF" fill-rule="nonzero">
                <path d="M2.90909091,31 C6.19636364,30.03 12.7127273,31.43 16,29 C19.2872727,31.43 25.8036364,30.03 29.0909091,31 C29.0909091,31 30.6909091,31.54 32,33 C31.3406061,33.97 30.4,33.99 29.0909091,33.5 C25.8036364,32.53 19.2872727,33.96 16,32.5 C12.7127273,33.96 6.19636364,32.53 2.90909091,33.5 C1.59612121,33.99 0.656484848,33.97 0,33 C1.3129697,31.06 2.90909091,31 2.90909091,31 Z" id="Shape"></path>
                <path d="M8.72727273,27 C11.1515152,29.5 20.8484848,29.5 23.2727273,27 C23.7575758,25.5 23.2727273,25 23.2727273,25 C23.2727273,22.5 20.8484848,21 20.8484848,21 C26.1818182,19.5 26.6666667,9.5 16,5.5 C5.33333333,9.5 5.81818182,19.5 11.1515152,21 C11.1515152,21 8.72727273,22.5 8.72727273,25 C8.72727273,25 8.24242424,25.5 8.72727273,27 Z" id="Shape"></path>
                <path d="M18.4242424,3 C18.4242424,4.38071187 17.3388721,5.5 16,5.5 C14.6611279,5.5 13.5757576,4.38071187 13.5757576,3 C13.5757576,1.61928813 14.6611279,0.5 16,0.5 C17.3388721,0.5 18.4242424,1.61928813 18.4242424,3 Z" id="Shape"></path>
            </g>
            <path d="M11.1515152,21 L20.8484848,21 M8.72727273,25 L23.2727273,25 M16,10.5 L16,15.5 M13.5757576,13 L18.4242424,13" id="Shape"></path>
        </g>
        <g id="wn" stroke-linejoin="round" transform="translate(124.000000, 4.000000)" stroke="#000000" fill-rule="nonzero">
            <path d="M15.5151515,3 C25.6969697,4 31.5151515,11 31.030303,32 L8.72727273,32 C8.72727273,23 18.4242424,25.5 16.4848485,11" id="Shape" stroke-width="1.5" fill="#FFFFFF"></path>
            <path d="M17.4545455,11 C17.8230303,13.91 12.0727273,18.37 9.6969697,20 C6.78787879,22 6.96242424,24.34 4.84848485,24 C3.83806061,23.06 6.21575758,20.96 4.84848485,21 C3.87878788,21 5.03272727,22.23 3.87878788,23 C2.90909091,23 -0.00290909091,24 -1.27054942e-21,19 C-1.27054942e-21,17 5.81818182,7 5.81818182,7 C5.81818182,7 7.65090909,5.1 7.75757576,3.5 C7.04969697,2.506 7.27272727,1.5 7.27272727,0.5 C8.24242424,-0.5 10.1818182,3 10.1818182,3 L12.1212121,3 C12.1212121,3 12.8775758,1.008 14.5454545,0 C15.5151515,0 15.5151515,3 15.5151515,3" id="Shape" stroke-width="1.5" fill="#FFFFFF"></path>
            <path d="M3.39393939,18.5 C3.39393939,18.7761424 3.17686533,19 2.90909091,19 C2.64131648,19 2.42424242,18.7761424 2.42424242,18.5 C2.42424242,18.2238576 2.64131648,18 2.90909091,18 C3.17686533,18 3.39393939,18.2238576 3.39393939,18.5 Z" id="Shape" stroke-width="1.5" fill="#000000"></path>
            <path d="M8.72726206,8.5 C8.72726206,9.3284089 8.51019278,9.999967 8.24242424,9.999967 C7.97465571,9.999967 7.75758642,9.3284089 7.75758642,8.5 C7.75758642,7.6715911 7.97465571,7.000033 8.24242424,7.000033 C8.51019278,7.000033 8.72726206,7.6715911 8.72726206,8.5 L8.72726206,8.5 Z" id="Shape" stroke-width="1.499967" fill="#000000" transform="translate(8.242424, 8.500000) rotate(30.000728) translate(-8.242424, -8.500000) "></path>
        </g>
        <g id="wr" stroke-linejoin="round" transform="translate(167.000000, 6.000000)" stroke-width="1.5" stroke="#000000">
            <polygon id="Shape" fill="#FFFFFF" points="0 30 26 30 26 27 0 27"></polygon>
            <polygon id="Shape" fill="#FFFFFF" points="2.88888889 27 2.88888889 23 23.1111111 23 23.1111111 27"></polygon>
            <polyline id="Shape" fill="#FFFFFF" points="1.92592593 5 1.92592593 0 5.77777778 0 5.77777778 2 10.5925926 2 10.5925926 0 15.4074074 0 15.4074074 2 20.2222222 2 20.2222222 0 24.0740741 0 24.0740741 5"></polyline>
            <polyline id="Shape" fill="#FFFFFF" points="24.0740741 5 21.1851852 8 4.81481481 8 1.92592593 5"></polyline>
            <polyline id="Shape" fill="#FFFFFF" points="21.1851852 8 21.1851852 20.5 4.81481481 20.5 4.81481481 8"></polyline>
            <polyline id="Shape" fill="#FFFFFF" points="21.1851852 20.5 22.6296296 23 3.37037037 23 4.81481481 20.5"></polyline>
            <path d="M1.92592593,5 L24.0740741,5" id="Shape"></path>
        </g>
        <g id="wp" transform="translate(208.000000, 6.000000)" stroke="#000000" fill-rule="nonzero" stroke-width="1.5" fill="#FFFFFF">
            <path d="M12,0 C9.79,0 8,1.79 8,4 C8,4.89 8.29,5.71 8.78,6.38 C6.83,7.5 5.5,9.59 5.5,12 C5.5,14.03 6.44,15.84 7.91,17.03 C4.91,18.09 0.5,22.58 0.5,30.5 L23.5,30.5 C23.5,22.58 19.09,18.09 16.09,17.03 C17.56,15.84 18.5,14.03 18.5,12 C18.5,9.59 17.17,7.5 15.22,6.38 C15.71,5.71 16,4.89 16,4 C16,1.79 14.21,0 12,0 Z" id="Shape"></path>
        </g>
        <g id="bk" stroke-linejoin="round" transform="translate(3.000000, 43.000000)" stroke-width="1.5">
            <path d="M17,5.63 L17,0" id="Shape" stroke="#000000"></path>
            <path d="M17,19 C17,19 21.3714286,11.5 19.9142857,8.5 C19.9142857,8.5 18.9428571,6 17,6 C15.0571429,6 14.0857143,8.5 14.0857143,8.5 C12.6285714,11.5 17,19 17,19" id="Shape" stroke="#000000" fill="#000000" fill-rule="nonzero"></path>
            <path d="M6.31428571,31 C11.6571429,34.5 21.3714286,34.5 26.7142857,31 L26.7142857,24 C26.7142857,24 35.4571429,19.5 32.5428571,13.5 C28.6571429,7 19.4285714,10 17,17.5 L17,21 L17,17.5 C13.6,10 4.37142857,7 1.45714286,13.5 C-1.45714286,19.5 6.31428571,23.5 6.31428571,23.5 L6.31428571,31 Z" id="Shape" stroke="#000000" fill="#000000" fill-rule="nonzero"></path>
            <path d="M14.5714286,2 L19.4285714,2" id="Shape" stroke="#000000"></path>
            <path d="M26.2285714,23.5 C26.2285714,23.5 34.4857143,19.5 32.0862857,13.85 C28.3171429,8 19.4285714,12 17,18.5 L17.0097143,20.6 L17,18.5 C14.5714286,12 4.76582857,8 1.93994286,13.85 C-0.485714286,19.5 6.65428571,22.85 6.65428571,22.85" id="Shape" stroke="#FFFFFF"></path>
            <path d="M6.31428571,24 C11.6571429,21 21.3714286,21 26.7142857,24 M6.31428571,27.5 C11.6571429,24.5 21.3714286,24.5 26.7142857,27.5 M6.31428571,31 C11.6571429,28 21.3714286,28 26.7142857,31" id="Shape" stroke="#FFFFFF"></path>
        </g>
        <g id="bq" stroke-linejoin="round" transform="translate(41.000000, 42.000000)">
            <g id="Group" fill="#000000">
                <ellipse id="Oval" cx="2.92307692" cy="7" rx="2.67948718" ry="2.75"></ellipse>
                <ellipse id="Oval" cx="10.7179487" cy="4" rx="2.67948718" ry="2.75"></ellipse>
                <ellipse id="Oval" cx="19" cy="3" rx="2.67948718" ry="2.75"></ellipse>
                <ellipse id="Oval" cx="27.2820513" cy="4" rx="2.67948718" ry="2.75"></ellipse>
                <ellipse id="Oval" cx="35.0769231" cy="7" rx="2.67948718" ry="2.75"></ellipse>
            </g>
            <path d="M5.84615385,21 C14.1282051,19.5 26.3076923,19.5 32.1538462,21 L34.5897436,8.5 L27.2820513,20 L26.9897436,5.9 L21.9230769,19.5 L19,5 L16.0769231,19.5 L11.0102564,5.9 L10.7179487,20 L3.41025641,8.5 L5.84615385,21 Z" id="crown" stroke="#000000" stroke-width="1.5" fill="#000000"></path>
            <path d="M5.84615385,21 C5.84615385,23 7.30769231,23 8.28205128,25 C9.25641026,26.5 9.25641026,26 8.76923077,28.5 C7.30769231,29.5 7.30769231,31 7.30769231,31 C5.84615385,32.5 7.79487179,33.5 7.79487179,33.5 C14.1282051,34.5 23.8717949,34.5 30.2051282,33.5 C30.2051282,33.5 31.6666667,32.5 30.2051282,31 C30.2051282,31 30.6923077,29.5 29.2307692,28.5 C28.7435897,26 28.7435897,26.5 29.7179487,25 C30.6923077,23 32.1538462,23 32.1538462,21 C23.8717949,19.5 14.1282051,19.5 5.84615385,21 Z" id="Shape" stroke="#000000" stroke-width="1.5" fill="#000000"></path>
            <path d="M7.79487179,33.5 C15.0516633,36.0909742 22.9483367,36.0909742 30.2051282,33.5" id="Shape" stroke="#000000" stroke-width="1.5"></path>
            <path d="M7.79487179,24 C15.0516633,21.4090258 22.9483367,21.4090258 30.2051282,24" id="Shape" stroke="#FFFFFF" stroke-width="1.5"></path>
            <path d="M9.25641026,26.5 L28.7435897,26.5" id="Shape" stroke="#FFFFFF" stroke-width="1.5"></path>
            <path d="M8.28205128,29.5 C15.2416129,31.8646727 22.7583871,31.8646727 29.7179487,29.5" id="Shape" stroke="#FFFFFF" stroke-width="1.5"></path>
            <path d="M7.30769231,32.5 C14.8589479,35.3285807 23.1410521,35.3285807 30.6923077,32.5" id="Shape" stroke="#FFFFFF" stroke-width="1.5"></path>
        </g>
        <g id="bb" stroke-linejoin="round" transform="translate(84.000000, 43.000000)" stroke-width="1.5">
            <g id="Group" stroke="#000000" fill="#000000" fill-rule="nonzero">
                <path d="M2.90909091,31 C6.19636364,30.03 12.7127273,31.43 16,29 C19.2872727,31.43 25.8036364,30.03 29.0909091,31 C29.0909091,31 30.6909091,31.54 32,33 C31.3406061,33.97 30.4,33.99 29.0909091,33.5 C25.8036364,32.53 19.2872727,33.96 16,32.5 C12.7127273,33.96 6.19636364,32.53 2.90909091,33.5 C1.59612121,33.99 0.656484848,33.97 0,33 C1.3129697,31.06 2.90909091,31 2.90909091,31 Z" id="Shape"></path>
                <path d="M8.72727273,27 C11.1515152,29.5 20.8484848,29.5 23.2727273,27 C23.7575758,25.5 23.2727273,25 23.2727273,25 C23.2727273,22.5 20.8484848,21 20.8484848,21 C26.1818182,19.5 26.6666667,9.5 16,5.5 C5.33333333,9.5 5.81818182,19.5 11.1515152,21 C11.1515152,21 8.72727273,22.5 8.72727273,25 C8.72727273,25 8.24242424,25.5 8.72727273,27 Z" id="Shape"></path>
                <path d="M18.4242424,3 C18.4242424,4.38071187 17.3388721,5.5 16,5.5 C14.6611279,5.5 13.5757576,4.38071187 13.5757576,3 C13.5757576,1.61928813 14.6611279,0.5 16,0.5 C17.3388721,0.5 18.4242424,1.61928813 18.4242424,3 Z" id="Shape"></path>
            </g>
            <path d="M11.1515152,21 L20.8484848,21 M8.72727273,25 L23.2727273,25 M16,10.5 L16,15.5 M13.5757576,13 L18.4242424,13" id="Shape" stroke="#FFFFFF"></path>
        </g>
        <g id="bn" stroke-linejoin="round" transform="translate(124.000000, 44.000000)" fill-rule="nonzero">
            <path d="M15.5151515,3 C25.6969697,4 31.5151515,11 31.030303,32 L8.72727273,32 C8.72727273,23 18.4242424,25.5 16.4848485,11" id="Shape" stroke="#000000" stroke-width="1.5" fill="#000000"></path>
            <path d="M17.4545455,11 C17.8230303,13.91 12.0727273,18.37 9.6969697,20 C6.78787879,22 6.96242424,24.34 4.84848485,24 C3.83806061,23.06 6.21575758,20.96 4.84848485,21 C3.87878788,21 5.03272727,22.23 3.87878788,23 C2.90909091,23 -0.00290909091,24 -1.27054942e-21,19 C-1.27054942e-21,17 5.81818182,7 5.81818182,7 C5.81818182,7 7.65090909,5.1 7.75757576,3.5 C7.04969697,2.506 7.27272727,1.5 7.27272727,0.5 C8.24242424,-0.5 10.1818182,3 10.1818182,3 L12.1212121,3 C12.1212121,3 12.8775758,1.008 14.5454545,0 C15.5151515,0 15.5151515,3 15.5151515,3" id="Shape" stroke="#000000" stroke-width="1.5" fill="#000000"></path>
            <path d="M3.39393939,18.5 C3.39393939,18.7761424 3.17686533,19 2.90909091,19 C2.64131648,19 2.42424242,18.7761424 2.42424242,18.5 C2.42424242,18.2238576 2.64131648,18 2.90909091,18 C3.17686533,18 3.39393939,18.2238576 3.39393939,18.5 Z" id="Shape" stroke="#FFFFFF" stroke-width="1.5" fill="#FFFFFF"></path>
            <path d="M8.72726206,8.5 C8.72726206,9.3284089 8.51019278,9.999967 8.24242424,9.999967 C7.97465571,9.999967 7.75758642,9.3284089 7.75758642,8.5 C7.75758642,7.6715911 7.97465571,7.000033 8.24242424,7.000033 C8.51019278,7.000033 8.72726206,7.6715911 8.72726206,8.5 L8.72726206,8.5 Z" id="Shape" stroke="#FFFFFF" stroke-width="1.499967" fill="#FFFFFF" transform="translate(8.242424, 8.500000) rotate(30.000728) translate(-8.242424, -8.500000) "></path>
            <path d="M17.9878788,3.4 L17.5515152,4.85 L18.0363636,5 C21.0909091,6 23.5151515,7.49 25.6969697,11.75 C27.8787879,16.01 28.8484848,22.06 28.3636364,32 L28.3151515,32.5 L30.4969697,32.5 L30.5454545,32 C31.030303,21.94 29.6921212,15.15 27.3939394,10.66 C25.0957576,6.17 21.7793939,4.02 18.4824242,3.5 L17.9878788,3.4 Z" id="Shape" fill="#FFFFFF"></path>
        </g>
        <g id="br" stroke-linejoin="round" transform="translate(167.000000, 46.000000)">
            <polygon id="Shape" stroke="#000000" stroke-width="1.5" fill="#000000" points="0 30 26 30 26 27 0 27"></polygon>
            <polygon id="Shape" stroke="#000000" stroke-width="1.5" fill="#000000" points="3.37037037 23 4.81481481 20.5 21.1851852 20.5 22.6296296 23"></polygon>
            <polygon id="Shape" stroke="#000000" stroke-width="1.5" fill="#000000" points="2.88888889 27 2.88888889 23 23.1111111 23 23.1111111 27"></polygon>
            <polygon id="Shape" stroke="#000000" stroke-width="1.5" fill="#000000" points="4.81481481 20.5 4.81481481 7.5 21.1851852 7.5 21.1851852 20.5"></polygon>
            <polygon id="Shape" stroke="#000000" stroke-width="1.5" fill="#000000" points="4.81481481 7.5 1.92592593 5 24.0740741 5 21.1851852 7.5"></polygon>
            <polygon id="Shape" stroke="#000000" stroke-width="1.5" fill="#000000" points="1.92592593 5 1.92592593 0 5.77777778 0 5.77777778 2 10.5925926 2 10.5925926 0 15.4074074 0 15.4074074 2 20.2222222 2 20.2222222 0 24.0740741 0 24.0740741 5"></polygon>
            <polyline id="Shape" stroke="#FFFFFF" points="2.88888889 26.5 23.1111111 26.5 23.1111111 26.5"></polyline>
            <path d="M3.85185185,22.5 L22.1481481,22.5" id="Shape" stroke="#FFFFFF"></path>
            <path d="M4.81481481,20.5 L21.1851852,20.5" id="Shape" stroke="#FFFFFF"></path>
            <path d="M4.81481481,7.5 L21.1851852,7.5" id="Shape" stroke="#FFFFFF"></path>
            <path d="M1.92592593,5 L24.0740741,5" id="Shape" stroke="#FFFFFF"></path>
        </g>
        <g id="bp" transform="translate(208.000000, 45.000000)" stroke="#000000" fill-rule="nonzero" stroke-width="1.5" fill="#000000">
            <path d="M12,0 C9.79,0 8,1.79 8,4 C8,4.89 8.29,5.71 8.78,6.38 C6.83,7.5 5.5,9.59 5.5,12 C5.5,14.03 6.44,15.84 7.91,17.03 C4.91,18.09 0.5,22.58 0.5,30.5 L23.5,30.5 C23.5,22.58 19.09,18.09 16.09,17.03 C17.56,15.84 18.5,14.03 18.5,12 C18.5,9.59 17.17,7.5 15.22,6.38 C15.71,5.71 16,4.89 16,4 C16,1.79 14.21,0 12,0 Z" id="Shape"></path>
        </g>
        <g id="marker" transform="translate(1.000000, 81.000000)" stroke="#000000" stroke-width="2">
            <path d="M2.66453526e-15,11.1764706 L2.66453526e-15,2.23529412 C1.79308119e-15,1.49019608 0.18627451,0.931372549 0.558823529,0.558823529 C0.931372549,0.18627451 1.49019608,-8.7672393e-15 2.23529412,-2.84217094e-14 L11.1764706,-2.84217094e-14" id="Path"></path>
            <path d="M26.8235294,38 L26.8235294,29.0588235 C26.8235294,28.3137255 27.0098039,27.754902 27.3823529,27.3823529 C27.754902,27.0098039 28.3137255,26.8235294 29.0588235,26.8235294 L38,26.8235294" id="Path" transform="translate(32.411765, 32.411765) rotate(-180.000000) translate(-32.411765, -32.411765) "></path>
            <path d="M0,38 L0,29.0588235 C-8.7145407e-16,28.3137255 0.18627451,27.754902 0.558823529,27.3823529 C0.931372549,27.0098039 1.49019608,26.8235294 2.23529412,26.8235294 L11.1764706,26.8235294" id="Path" transform="translate(5.588235, 32.411765) rotate(-90.000000) translate(-5.588235, -32.411765) "></path>
            <path d="M26.8235294,11.1764706 L26.8235294,2.23529412 C26.8235294,1.49019608 27.0098039,0.931372549 27.3823529,0.558823529 C27.754902,0.18627451 28.3137255,1.96544701e-14 29.0588235,0 L38,0" id="Path" transform="translate(32.411765, 5.588235) rotate(-270.000000) translate(-32.411765, -5.588235) "></path>
        </g>
    </g>
</svg>